{
  "accessors": [
    {
      "bufferView": 2,
      "componentType": 5126,
      "count": 10048,
      "max": [
        40.276958465576172,
        7.7993001937866211,
        75.316818237304688
      ],
      "min": [
        -40.276958465576172,
        -8.4854097366333008,
        -0.023089999333024025
      ],
      "type": "VEC3"
    },
    {
      "bufferView": 2,
      "byteOffset": 120576,
      "componentType": 5126,
      "count": 10048,
      "max": [
        0.99977761507034302,
        0.99999970197677612,
        0.99999862909317017
      ],
      "min": [
        -0.99977761507034302,
        -1,
        -0.99999195337295532
      ],
      "type": "VEC3"
    },
    {
      "bufferView": 3,
      "componentType": 5126,
      "count": 10048,
      "max": [
        1,
        0.99999862909317017,
        0.99992668628692627,
        1
      ],
      "min": [
        -1,
        -0.99996387958526611,
        -0.99944877624511719,
        -1
      ],
      "type": "VEC4"
    },
    {
      "bufferView": 1,
      "componentType": 5126,
      "count": 10048,
      "max": [
        0.99709999561309814,
        -0.0024000001139938831
      ],
      "min": [
        0.004999999888241291,
        -0.99559998512268066
      ],
      "type": "VEC2"
    },
    {
      "bufferView": 0,
      "componentType": 5125,
      "count": 48474,
      "max": [
        10047
      ],
      "min": [
        0
      ],
      "type": "SCALAR"
    },
    {
      "bufferView": 2,
      "byteOffset": 241152,
      "componentType": 5126,
      "count": 258,
      "max": [
        1.6725300550460815,
        -2.195080041885376,
        67.465202331542969
      ],
      "min": [
        -1.6724599599838257,
        -3.2859699726104736,
        66.237396240234375
      ],
      "type": "VEC3"
    },
    {
      "bufferView": 2,
      "byteOffset": 244248,
      "componentType": 5126,
      "count": 258,
      "max": [
        1,
        0.49411201477050781,
        1
      ],
      "min": [
        -1,
        -1,
        -1
      ],
      "type": "VEC3"
    },
    {
      "bufferView": 3,
      "byteOffset": 160768,
      "componentType": 5126,
      "count": 258,
      "max": [
        0.99834555387496948,
        0.98210930824279785,
        0.77127593755722046,
        1
      ],
      "min": [
        -0.49196010828018188,
        -0.98210388422012329,
        -0.77131658792495728,
        1
      ],
      "type": "VEC4"
    },
    {
      "bufferView": 1,
      "byteOffset": 80384,
      "componentType": 5126,
      "count": 258,
      "max": [
        2.6012101173400879,
        2.6007699966430664
      ],
      "min": [
        -1.6012099981307983,
        -1.6009399890899658
      ],
      "type": "VEC2"
    },
    {
      "bufferView": 0,
      "byteOffset": 193896,
      "componentType": 5125,
      "count": 1440,
      "max": [
        257
      ],
      "min": [
        0
      ],
      "type": "SCALAR"
    }
  ],
  "asset": {
    "extras": {
      "author": "adamryandavis007 (https://sketchfab.com/adamryandavis007)",
      "license": "CC-BY-4.0 (http://creativecommons.org/licenses/by/4.0/)",
      "source": "https://sketchfab.com/3d-models/star-platinum-0f657478a15d42bebd0650bb4f2b583b",
      "title": "Star Platinum"
    },
    "generator": "Sketchfab-4.33.0",
    "version": "2.0"
  },
  "bufferViews": [
    {
      "buffer": 0,
      "byteLength": 199656,
      "byteOffset": 0,
      "name": "floatBufferViews",
      "target": 34963
    },
    {
      "buffer": 0,
      "byteLength": 82448,
      "byteOffset": 199656,
      "byteStride": 8,
      "name": "floatBufferViews",
      "target": 34962
    },
    {
      "buffer": 0,
      "byteLength": 247344,
      "byteOffset": 282104,
      "byteStride": 12,
      "name": "floatBufferViews",
      "target": 34962
    },
    {
      "buffer": 0,
      "byteLength": 164896,
      "byteOffset": 529448,
      "byteStride": 16,
      "name": "floatBufferViews",
      "target": 34962
    }
  ],
  "buffers": [
    {
      "byteLength": 694344,
      "uri": "scene.bin"
    }
  ],
  "extensionsUsed": [
    "KHR_materials_unlit"
  ],
  "images": [
    {
      "uri": "textures/ntxr000_baseColor.png"
    },
    {
      "uri": "textures/ntxr002_baseColor.png"
    }
  ],
  "materials": [
    {
      "doubleSided": true,
      "extensions": {
        "KHR_materials_unlit": {}
      },
      "name": "ntxr000",
      "pbrMetallicRoughness": {
        "baseColorFactor": [
          1,
          1,
          1,
          1
        ],
        "baseColorTexture": {
          "index": 0,
          "texCoord": 0
        },
        "metallicFactor": 0,
        "roughnessFactor": 1
      }
    },
    {
      "doubleSided": true,
      "extensions": {
        "KHR_materials_unlit": {}
      },
      "name": "ntxr002",
      "pbrMetallicRoughness": {
        "baseColorFactor": [
          1,
          1,
          1,
          1
        ],
        "baseColorTexture": {
          "index": 1,
          "texCoord": 0
        },
        "metallicFactor": 0,
        "roughnessFactor": 1
      }
    }
  ],
  "meshes": [
    {
      "name": "sp_starP1_0",
      "primitives": [
        {
          "attributes": {
            "NORMAL": 1,
            "POSITION": 0,
            "TANGENT": 2,
            "TEXCOORD_0": 3
          },
          "indices": 4,
          "material": 0,
          "mode": 4
        }
      ]
    },
    {
      "name": "sp_starP1_1",
      "primitives": [
        {
          "attributes": {
            "NORMAL": 6,
            "POSITION": 5,
            "TANGENT": 7,
            "TEXCOORD_0": 8
          },
          "indices": 9,
          "material": 1,
          "mode": 4
        }
      ]
    }
  ],
  "nodes": [
    {
      "children": [
        1
      ],
      "name": "RootNode (gltf orientation matrix)",
      "rotation": [
        -0.70710678118654746,
        -0,
        -0,
        0.70710678118654757
      ]
    },
    {
      "children": [
        2
      ],
      "name": "RootNode (model correction matrix)"
    },
    {
      "children": [
        3,
        5
      ],
      "name": "Root"
    },
    {
      "children": [
        4
      ],
      "matrix": [
        -0.29086000000000006,
        0.95517000000000007,
        -0.05519000000000001,
        0,
        -0.77110000000000001,
        -0.19988000000000003,
        0.60452000000000006,
        0,
        0.56639000000000006,
        0.21839000000000003,
        0.7946700000000001,
        0,
        4.0762500000000008,
        1.00545,
        5.9038600000000008,
        1
      ],
      "name": "Lamp"
    },
    {
      "name": "Lamp"
    },
    {
      "children": [
        6,
        7
      ],
      "name": "sp_starP1"
    },
    {
      "mesh": 0,
      "name": "sp_starP1_0"
    },
    {
      "mesh": 1,
      "name": "sp_starP1_1"
    }
  ],
  "samplers": [
    {
      "magFilter": 9729,
      "minFilter": 9987,
      "wrapS": 10497,
      "wrapT": 10497
    }
  ],
  "scene": 0,
  "scenes": [
    {
      "name": "OSG_Scene",
      "nodes": [
        0
      ]
    }
  ],
  "textures": [
    {
      "sampler": 0,
      "source": 0
    },
    {
      "sampler": 0,
      "source": 1
    }
  ]
}

